<?xml version="1.0" encoding="UTF-8" standalone="no"?>
<!-- Generator: Adobe Illustrator 19.1.0, SVG Export Plug-In . SVG Version: 6.00 Build 0)  -->

<svg
   xmlns:dc="http://purl.org/dc/elements/1.1/"
   xmlns:cc="http://creativecommons.org/ns#"
   xmlns:rdf="http://www.w3.org/1999/02/22-rdf-syntax-ns#"
   xmlns:svg="http://www.w3.org/2000/svg"
   xmlns="http://www.w3.org/2000/svg"
   xmlns:sodipodi="http://sodipodi.sourceforge.net/DTD/sodipodi-0.dtd"
   xmlns:inkscape="http://www.inkscape.org/namespaces/inkscape"
   version="1.1"
   x="0px"
   y="0px"
   width="24px"
   height="24px"
   viewBox="0 0 24 24"
   enable-background="new 0 0 24 24"
   xml:space="preserve"
   id="svg10"
   sodipodi:docname="call.svg"
   inkscape:version="0.92.3 (2405546, 2018-03-11)"><metadata
   id="metadata16"><rdf:RDF><cc:Work
       rdf:about=""><dc:format>image/svg+xml</dc:format><dc:type
         rdf:resource="http://purl.org/dc/dcmitype/StillImage" /></cc:Work></rdf:RDF></metadata><defs
   id="defs14" /><sodipodi:namedview
   pagecolor="#ffffff"
   bordercolor="#666666"
   borderopacity="1"
   objecttolerance="10"
   gridtolerance="10"
   guidetolerance="10"
   inkscape:pageopacity="0"
   inkscape:pageshadow="2"
   inkscape:window-width="1280"
   inkscape:window-height="975"
   id="namedview12"
   showgrid="false"
   inkscape:zoom="9.8333333"
   inkscape:cx="-4.4745763"
   inkscape:cy="12"
   inkscape:window-x="0"
   inkscape:window-y="0"
   inkscape:window-maximized="1"
   inkscape:current-layer="Rounded_1_" />
<g
   id="Bounding_Boxes">
	<g
   id="ui_x5F_spec_x5F_header_copy_2">
	</g>
	<path
   fill="none"
   d="M0,0h24v24H0V0z"
   id="path3" />
</g>
<g
   id="Rounded_1_">
	<g
   id="ui_x5F_spec_x5F_header_copy_6">
	</g>
	<path
   d="M19.23,15.26l-2.54-0.29c-0.61-0.07-1.21,0.14-1.64,0.57l-1.84,1.84c-2.83-1.44-5.15-3.75-6.59-6.59l1.85-1.85   C8.9,8.51,9.11,7.91,9.04,7.3L8.75,4.78C8.63,3.77,7.78,3.01,6.76,3.01l-1.73,0c-1.13,0-2.07,0.94-2,2.07   c0.53,8.54,7.36,15.36,15.89,15.89c1.13,0.07,2.07-0.87,2.07-2l0-1.73C21,16.23,20.24,15.38,19.23,15.26z"
   id="path7"
   style="fill:#ffffff;fill-opacity:1" />
</g>
</svg>