<?xml version="1.0" encoding="UTF-8" standalone="no"?>
<!-- Generator: Adobe Illustrator 19.1.0, SVG Export Plug-In . SVG Version: 6.00 Build 0)  -->

<svg
   xmlns:dc="http://purl.org/dc/elements/1.1/"
   xmlns:cc="http://creativecommons.org/ns#"
   xmlns:rdf="http://www.w3.org/1999/02/22-rdf-syntax-ns#"
   xmlns:svg="http://www.w3.org/2000/svg"
   xmlns="http://www.w3.org/2000/svg"
   xmlns:sodipodi="http://sodipodi.sourceforge.net/DTD/sodipodi-0.dtd"
   xmlns:inkscape="http://www.inkscape.org/namespaces/inkscape"
   version="1.1"
   x="0px"
   y="0px"
   width="24px"
   height="24px"
   viewBox="0 0 24 24"
   enable-background="new 0 0 24 24"
   xml:space="preserve"
   id="svg51"
   sodipodi:docname="shopping.svg"
   inkscape:version="0.92.3 (2405546, 2018-03-11)"><metadata
   id="metadata57"><rdf:RDF><cc:Work
       rdf:about=""><dc:format>image/svg+xml</dc:format><dc:type
         rdf:resource="http://purl.org/dc/dcmitype/StillImage" /></cc:Work></rdf:RDF></metadata><defs
   id="defs55" /><sodipodi:namedview
   pagecolor="#ffffff"
   bordercolor="#666666"
   borderopacity="1"
   objecttolerance="10"
   gridtolerance="10"
   guidetolerance="10"
   inkscape:pageopacity="0"
   inkscape:pageshadow="2"
   inkscape:window-width="1280"
   inkscape:window-height="975"
   id="namedview53"
   showgrid="false"
   inkscape:zoom="9.8333333"
   inkscape:cx="-4.4745763"
   inkscape:cy="12"
   inkscape:window-x="0"
   inkscape:window-y="0"
   inkscape:window-maximized="1"
   inkscape:current-layer="Rounded" />
<g
   id="Header_x2F_BG"
   display="none">
	<rect
   x="-402"
   y="-402"
   display="inline"
   fill="#F1F1F2"
   width="520"
   height="520"
   id="rect2" />
</g>
<g
   id="Bounding_Boxes">
	<g
   id="ui_x5F_spec_x5F_header_copy_3"
   display="none">
	</g>
	<path
   fill="none"
   d="M0,0h24v24H0V0z"
   id="path6" />
</g>
<g
   id="Rounded">
	<path
   d="M7,18c-1.1,0-1.99,0.9-1.99,2S5.9,22,7,22s2-0.9,2-2S8.1,18,7,18z M1,3L1,3c0,0.55,0.45,1,1,1h1l3.6,7.59l-1.35,2.44   C4.52,15.37,5.48,17,7,17h11c0.55,0,1-0.45,1-1v0c0-0.55-0.45-1-1-1H7l1.1-2h7.45c0.75,0,1.41-0.41,1.75-1.03l3.58-6.49   C21.25,4.82,20.77,4,20.01,4H5.21L4.54,2.57C4.38,2.22,4.02,2,3.64,2L2,2C1.45,2,1,2.45,1,3z M17,18c-1.1,0-1.99,0.9-1.99,2   s0.89,2,1.99,2s2-0.9,2-2S18.1,18,17,18z"
   id="path9"
   style="fill:#1c98b6;fill-opacity:1" />
	<g
   id="ui_x5F_spec_x5F_header_copy_5"
   display="none">
	</g>
</g>
<g
   id="Sharp"
   display="none">
	<g
   id="ui_x5F_spec_x5F_header_copy_4">
	</g>
	<g
   display="inline"
   id="g20">
		<path
   d="M17,18c-1.1,0-1.99,0.9-1.99,2c0,1.1,0.89,2,1.99,2s2-0.9,2-2C19,18.9,18.1,18,17,18z"
   id="path14" />
		<path
   d="M7,18c-1.1,0-1.99,0.9-1.99,2c0,1.1,0.89,2,1.99,2s2-0.9,2-2C9,18.9,8.1,18,7,18z"
   id="path16" />
		<path
   d="M7,15l1.1-2h7.45c0.75,0,1.41-0.41,1.75-1.03L21.7,4H5.21L4.27,2H1v2h2l3.6,7.59L3.62,17H19v-2H7z"
   id="path18" />
	</g>
</g>
<g
   id="Outline"
   display="none">
	<g
   id="ui_x5F_spec_x5F_header">
	</g>
	<g
   display="inline"
   id="g30">
		<path
   d="M15.55,13c0.75,0,1.41-0.41,1.75-1.03l3.58-6.49C21.25,4.82,20.77,4,20.01,4H5.21L4.27,2H1v2h2l3.6,7.59l-1.35,2.44    C4.52,15.37,5.48,17,7,17h12v-2H7l1.1-2H15.55z M6.16,6h12.15l-2.76,5H8.53L6.16,6z"
   id="path24" />
		<path
   d="M7,18c-1.1,0-1.99,0.9-1.99,2c0,1.1,0.89,2,1.99,2c1.1,0,2-0.9,2-2C9,18.9,8.1,18,7,18z"
   id="path26" />
		<path
   d="M17,18c-1.1,0-1.99,0.9-1.99,2c0,1.1,0.89,2,1.99,2c1.1,0,2-0.9,2-2C19,18.9,18.1,18,17,18z"
   id="path28" />
	</g>
</g>
<g
   id="Duotone"
   display="none">
	<g
   display="inline"
   id="g43">
		<polygon
   opacity="0.3"
   points="15.55,11 18.31,6 6.16,6 8.53,11   "
   id="polygon33" />
		<g
   id="g41">
			<path
   d="M15.55,13c0.75,0,1.41-0.41,1.75-1.03l3.58-6.49C21.25,4.82,20.77,4,20.01,4H5.21L4.27,2H1v2h2l3.6,7.59l-1.35,2.44     C4.52,15.37,5.48,17,7,17h12v-2H7l1.1-2H15.55z M6.16,6h12.15l-2.76,5H8.53L6.16,6z"
   id="path35" />
			<path
   d="M7,18c-1.1,0-1.99,0.9-1.99,2c0,1.1,0.89,2,1.99,2c1.1,0,2-0.9,2-2C9,18.9,8.1,18,7,18z"
   id="path37" />
			<path
   d="M17,18c-1.1,0-1.99,0.9-1.99,2c0,1.1,0.89,2,1.99,2c1.1,0,2-0.9,2-2C19,18.9,18.1,18,17,18z"
   id="path39" />
		</g>
	</g>
	<g
   id="ui_x5F_spec_x5F_header_copy_2">
	</g>
</g>
<g
   id="Material"
   display="none">
	<g
   id="ui_x5F_spec_x5F_header_copy">
	</g>
	<path
   display="inline"
   d="M7,18c-1.1,0-1.99,0.9-1.99,2S5.9,22,7,22s2-0.9,2-2S8.1,18,7,18z M1,2v2h2l3.6,7.59l-1.35,2.44   C4.52,15.37,5.48,17,7,17h12v-2H7l1.1-2h7.45c0.75,0,1.41-0.41,1.75-1.03l3.58-6.49C21.25,4.82,20.77,4,20.01,4H5.21L4.27,2L1,2z    M17,18c-1.1,0-1.99,0.9-1.99,2s0.89,2,1.99,2s2-0.9,2-2S18.1,18,17,18z"
   id="path48" />
</g>
</svg>